<?xml version="1.0" encoding="UTF-8"?>
<!DOCTYPE svg PUBLIC "-//W3C//DTD SVG 1.1//EN" "http://www.w3.org/Graphics/SVG/1.1/DTD/svg11.dtd">
<svg xmlns="http://www.w3.org/2000/svg" version="1.1" width="120px" height="120px" style="shape-rendering:geometricPrecision; text-rendering:geometricPrecision; image-rendering:optimizeQuality; fill-rule:evenodd; clip-rule:evenodd" xmlns:xlink="http://www.w3.org/1999/xlink">
<g><path style="opacity:0.98" fill="#65605e" d="M 83.5,20.5 C 87.5396,22.1167 91.8729,22.95 96.5,23C 96.8333,23.3333 97.1667,23.6667 97.5,24C 95.8659,24.4935 94.1992,24.6602 92.5,24.5C 88.19,23.9198 83.8566,23.5865 79.5,23.5C 78.5178,24.1408 77.5178,24.8075 76.5,25.5C 74.3334,24.2081 72.0001,23.3747 69.5,23C 60.8333,22.3333 52.1667,22.3333 43.5,23C 42.5842,23.2784 41.9175,23.7784 41.5,24.5C 39.0504,24.702 36.717,24.3686 34.5,23.5C 29.453,23.3375 24.453,23.6708 19.5,24.5C 18.6236,24.6309 17.9569,24.2975 17.5,23.5C 22.6191,22.4116 27.6191,21.4116 32.5,20.5C 49.4022,19.1761 66.4022,19.1761 83.5,20.5 Z"/></g>
<g><path style="opacity:1" fill="#b7b6b6" d="M 83.5,20.5 C 90.879,20.7713 98.2123,21.438 105.5,22.5C 105.389,23.1174 105.056,23.6174 104.5,24C 93.4405,26.3984 82.4405,28.2317 71.5,29.5C 71.6716,28.5084 71.3382,27.8417 70.5,27.5C 60.6751,26.6698 50.6751,26.1698 40.5,26C 41.056,25.6174 41.3893,25.1174 41.5,24.5C 41.9175,23.7784 42.5842,23.2784 43.5,23C 52.1667,22.3333 60.8333,22.3333 69.5,23C 72.0001,23.3747 74.3334,24.2081 76.5,25.5C 77.5178,24.8075 78.5178,24.1408 79.5,23.5C 79.5,24.5 79.5,25.5 79.5,26.5C 84.1,26.7204 88.4333,26.0538 92.5,24.5C 94.1992,24.6602 95.8659,24.4935 97.5,24C 97.1667,23.6667 96.8333,23.3333 96.5,23C 91.8729,22.95 87.5396,22.1167 83.5,20.5 Z"/></g>
<g><path style="opacity:1" fill="#8a8583" d="M 32.5,20.5 C 27.6191,21.4116 22.6191,22.4116 17.5,23.5C 17.9569,24.2975 18.6236,24.6309 19.5,24.5C 21.8383,26.0395 24.5049,26.7062 27.5,26.5C 27.5,26.8333 27.5,27.1667 27.5,27.5C 24.3915,27.7359 21.3915,27.4025 18.5,26.5C 15.1854,25.8358 11.852,25.1692 8.5,24.5C 7.58362,24.5427 6.91695,24.8761 6.5,25.5C 5.22641,24.8106 5.22641,23.9772 6.5,23C 15.1049,21.5359 23.7716,20.7026 32.5,20.5 Z"/></g>
<g><path style="opacity:1" fill="#e9e9e9" d="M 79.5,23.5 C 83.8566,23.5865 88.19,23.9198 92.5,24.5C 88.4333,26.0538 84.1,26.7204 79.5,26.5C 79.5,25.5 79.5,24.5 79.5,23.5 Z"/></g>
<g><path style="opacity:1" fill="#dbdada" d="M 34.5,23.5 C 34.5,24.5 34.5,25.5 34.5,26.5C 32.1667,26.5 29.8333,26.5 27.5,26.5C 24.5049,26.7062 21.8383,26.0395 19.5,24.5C 24.453,23.6708 29.453,23.3375 34.5,23.5 Z"/></g>
<g><path style="opacity:1" fill="#a3a1a0" d="M 34.5,23.5 C 36.717,24.3686 39.0504,24.702 41.5,24.5C 41.3893,25.1174 41.056,25.6174 40.5,26C 50.6751,26.1698 60.6751,26.6698 70.5,27.5C 59.5769,26.8932 48.9103,27.5598 38.5,29.5C 35.3157,27.5864 31.649,26.9197 27.5,27.5C 27.5,27.1667 27.5,26.8333 27.5,26.5C 29.8333,26.5 32.1667,26.5 34.5,26.5C 34.5,25.5 34.5,24.5 34.5,23.5 Z"/></g>
<g><path style="opacity:0.995" fill="#706c6a" d="M 18.5,26.5 C 18.5,28.8333 18.5,31.1667 18.5,33.5C 17.5,33.5 16.5,33.5 15.5,33.5C 12.763,32.969 10.0964,32.1356 7.5,31C 6.59391,29.3005 6.26057,27.4672 6.5,25.5C 6.91695,24.8761 7.58362,24.5427 8.5,24.5C 11.852,25.1692 15.1854,25.8358 18.5,26.5 Z"/></g>
<g><path style="opacity:1" fill="#4a423f" d="M 70.5,27.5 C 71.3382,27.8417 71.6716,28.5084 71.5,29.5C 71.5,29.8333 71.5,30.1667 71.5,30.5C 71.5,32.5 71.5,34.5 71.5,36.5C 60.8333,36.5 50.1667,36.5 39.5,36.5C 39.1667,28.5 38.8333,28.5 38.5,36.5C 35.6146,36.1936 32.9479,36.5269 30.5,37.5C 28.6208,36.6586 26.6208,36.3253 24.5,36.5C 24.5,33.8333 24.5,31.1667 24.5,28.5C 29.263,28.2256 33.9296,28.559 38.5,29.5C 48.9103,27.5598 59.5769,26.8932 70.5,27.5 Z"/></g>
<g><path style="opacity:1" fill="#736d6b" d="M 105.5,22.5 C 106.497,22.4701 107.164,22.9701 107.5,24C 106.678,26.4339 106.344,28.9339 106.5,31.5C 103.779,31.9628 101.112,32.6295 98.5,33.5C 96.5,33.5 94.5,33.5 92.5,33.5C 92.6567,32.1266 92.49,30.7932 92,29.5C 91.5045,31.4727 91.3379,33.4727 91.5,35.5C 89.8333,35.5 88.1667,35.5 86.5,35.5C 86.5,33.1667 86.5,30.8333 86.5,28.5C 81.5203,27.9853 76.8536,28.652 72.5,30.5C 72.1667,30.5 71.8333,30.5 71.5,30.5C 71.5,30.1667 71.5,29.8333 71.5,29.5C 82.4405,28.2317 93.4405,26.3984 104.5,24C 105.056,23.6174 105.389,23.1174 105.5,22.5 Z"/></g>
<g><path style="opacity:1" fill="#262627" d="M 71.5,30.5 C 71.8333,30.5 72.1667,30.5 72.5,30.5C 72.5,32.5 72.5,34.5 72.5,36.5C 75.6981,35.9644 78.3647,36.631 80.5,38.5C 78.0491,47.189 75.3825,55.8557 72.5,64.5C 73.6616,66.5384 75.3283,67.8718 77.5,68.5C 74.7743,68.2639 72.441,69.0972 70.5,71C 60.4423,71.7338 50.7756,71.5671 41.5,70.5C 42.0431,70.44 42.3764,70.1067 42.5,69.5C 42.0057,67.9745 41.339,66.6412 40.5,65.5C 36.0472,56.576 32.7139,47.2427 30.5,37.5C 32.9479,36.5269 35.6146,36.1936 38.5,36.5C 38.8333,28.5 39.1667,28.5 39.5,36.5C 50.1667,36.5 60.8333,36.5 71.5,36.5C 71.5,34.5 71.5,32.5 71.5,30.5 Z"/></g>
<g><path style="opacity:1" fill="#4a423f" d="M 86.5,35.5 C 84.3609,36.1581 82.3609,37.1581 80.5,38.5C 78.3647,36.631 75.6981,35.9644 72.5,36.5C 72.5,34.5 72.5,32.5 72.5,30.5C 76.8536,28.652 81.5203,27.9853 86.5,28.5C 86.5,30.8333 86.5,33.1667 86.5,35.5 Z"/></g>
<g><path style="opacity:0.913" fill="#565656" d="M 18.5,26.5 C 21.3915,27.4025 24.3915,27.7359 27.5,27.5C 31.649,26.9197 35.3157,27.5864 38.5,29.5C 33.9296,28.559 29.263,28.2256 24.5,28.5C 24.5,31.1667 24.5,33.8333 24.5,36.5C 26.6208,36.3253 28.6208,36.6586 30.5,37.5C 32.7139,47.2427 36.0472,56.576 40.5,65.5C 38.7185,67.357 36.3852,68.357 33.5,68.5C 33.6107,67.8826 33.944,67.3826 34.5,67C 25.9635,57.0949 19.6302,45.9282 15.5,33.5C 16.5,33.5 17.5,33.5 18.5,33.5C 18.5,31.1667 18.5,28.8333 18.5,26.5 Z"/></g>
<g><path style="opacity:0.751" fill="#515151" d="M 98.5,33.5 C 94.0606,45.7649 87.7273,56.9316 79.5,67C 80.3802,68.3561 80.7135,69.8561 80.5,71.5C 79.209,71.2627 78.209,71.596 77.5,72.5C 74.7417,73.9665 75.075,74.6332 78.5,74.5C 78.5,75.1667 78.8333,75.5 79.5,75.5C 79.5,76.1667 79.8333,76.5 80.5,76.5C 80.5,76.8333 80.5,77.1667 80.5,77.5C 76.3791,78.3419 73.3791,77.0085 71.5,73.5C 73.9811,72.2803 75.9811,70.6137 77.5,68.5C 75.3283,67.8718 73.6616,66.5384 72.5,64.5C 75.3825,55.8557 78.0491,47.189 80.5,38.5C 82.3609,37.1581 84.3609,36.1581 86.5,35.5C 88.1667,35.5 89.8333,35.5 91.5,35.5C 91.3379,33.4727 91.5045,31.4727 92,29.5C 92.49,30.7932 92.6567,32.1266 92.5,33.5C 94.5,33.5 96.5,33.5 98.5,33.5 Z"/></g>
<g><path style="opacity:1" fill="#151516" d="M 41.5,70.5 C 50.7756,71.5671 60.4423,71.7338 70.5,71C 72.441,69.0972 74.7743,68.2639 77.5,68.5C 75.9811,70.6137 73.9811,72.2803 71.5,73.5C 70.5266,73.9867 69.5266,74.4867 68.5,75C 60.0881,75.801 51.7548,75.6344 43.5,74.5C 41.2185,73.3918 39.0519,72.0585 37,70.5C 36.4092,69.5165 36.7425,68.8499 38,68.5C 39.3026,68.9783 40.4693,69.645 41.5,70.5 Z"/></g>
<g><path style="opacity:0.835" fill="#6e6e6f" d="M 80.5,71.5 C 82.914,72.9108 84.5806,74.9108 85.5,77.5C 83.086,76.0892 81.4194,74.0892 80.5,71.5 Z"/></g>
<g><path style="opacity:0.878" fill="#2c2c2d" d="M 35.5,72.5 C 33.7745,74.2279 32.4411,76.2279 31.5,78.5C 30.8333,78.5 30.5,78.8333 30.5,79.5C 28.6827,80.2192 28.0161,81.2192 28.5,82.5C 33.8189,80.0131 38.8189,77.3464 43.5,74.5C 51.7548,75.6344 60.0881,75.801 68.5,75C 69.5266,74.4867 70.5266,73.9867 71.5,73.5C 73.3791,77.0085 76.3791,78.3419 80.5,77.5C 81.8333,77.1667 81.8333,76.8333 80.5,76.5C 79.8333,76.5 79.5,76.1667 79.5,75.5C 78.8333,75.5 78.5,75.1667 78.5,74.5C 78.6716,73.5084 78.3382,72.8417 77.5,72.5C 78.209,71.596 79.209,71.2627 80.5,71.5C 81.4194,74.0892 83.086,76.0892 85.5,77.5C 86.4194,80.0892 88.086,82.0892 90.5,83.5C 90.7332,86.9536 89.3999,87.9536 86.5,86.5C 82.0671,83.263 77.2338,80.5964 72,78.5C 73.1541,83.8435 74.6541,89.1769 76.5,94.5C 76.5,95.5 76.5,96.5 76.5,97.5C 77.791,97.2627 78.791,97.596 79.5,98.5C 79.1961,99.1499 78.8627,99.8165 78.5,100.5C 64.1821,101.499 49.8488,101.833 35.5,101.5C 35.5,99.1667 35.5,96.8333 35.5,94.5C 37.0613,89.9851 38.728,85.4851 40.5,81C 40.1667,80.5 39.8333,80 39.5,79.5C 35.2325,82.1309 30.8992,84.4643 26.5,86.5C 26.631,87.2389 26.4643,87.9056 26,88.5C 24.8333,87.3333 23.6667,86.1667 22.5,85C 26.1667,80.6667 29.8333,76.3333 33.5,72C 34.4368,71.3083 35.1034,71.475 35.5,72.5 Z M 77.5,72.5 C 78.3382,72.8417 78.6716,73.5084 78.5,74.5C 75.075,74.6332 74.7417,73.9665 77.5,72.5 Z M 46.5,77.5 C 53.1667,77.5 59.8333,77.5 66.5,77.5C 68.2907,83.5388 70.2907,89.5388 72.5,95.5C 61.5,96.8333 50.5,96.8333 39.5,95.5C 41.8492,89.4744 44.1825,83.4744 46.5,77.5 Z M 35.5,72.5 C 36.6828,73.5045 38.0161,74.3378 39.5,75C 36.9289,76.4538 34.2622,77.6205 31.5,78.5C 32.4411,76.2279 33.7745,74.2279 35.5,72.5 Z"/></g>
<g><path style="opacity:0.808" fill="#6e6e6f" d="M 85.5,77.5 C 87.914,78.9108 89.5806,80.9108 90.5,83.5C 88.086,82.0892 86.4194,80.0892 85.5,77.5 Z"/></g>
<g><path style="opacity:0.51" fill="#454546" d="M 40.5,65.5 C 41.339,66.6412 42.0057,67.9745 42.5,69.5C 42.3764,70.1067 42.0431,70.44 41.5,70.5C 40.4693,69.645 39.3026,68.9783 38,68.5C 36.7425,68.8499 36.4092,69.5165 37,70.5C 39.0519,72.0585 41.2185,73.3918 43.5,74.5C 38.8189,77.3464 33.8189,80.0131 28.5,82.5C 28.0161,81.2192 28.6827,80.2192 30.5,79.5C 31.1667,79.5 31.5,79.1667 31.5,78.5C 34.2622,77.6205 36.9289,76.4538 39.5,75C 38.0161,74.3378 36.6828,73.5045 35.5,72.5C 35.1034,71.475 34.4368,71.3083 33.5,72C 29.8333,76.3333 26.1667,80.6667 22.5,85C 23.6667,86.1667 24.8333,87.3333 26,88.5C 26.4643,87.9056 26.631,87.2389 26.5,86.5C 29.5,89.1667 32.5,91.8333 35.5,94.5C 35.5,96.8333 35.5,99.1667 35.5,101.5C 30.369,96.5703 25.7024,91.237 21.5,85.5C 25.5159,79.8219 29.5159,74.1552 33.5,68.5C 36.3852,68.357 38.7185,67.357 40.5,65.5 Z M 35.5,72.5 C 36.6828,73.5045 38.0161,74.3378 39.5,75C 36.9289,76.4538 34.2622,77.6205 31.5,78.5C 32.4411,76.2279 33.7745,74.2279 35.5,72.5 Z"/></g>
<g><path style="opacity:0.709" fill="#535353" d="M 90.5,83.5 C 92.2726,84.3143 92.7726,85.6476 92,87.5C 88.2583,91.7475 84.0917,95.4141 79.5,98.5C 78.791,97.596 77.791,97.2627 76.5,97.5C 76.5,96.5 76.5,95.5 76.5,94.5C 80.1219,92.2133 83.4552,89.5466 86.5,86.5C 89.3999,87.9536 90.7332,86.9536 90.5,83.5 Z"/></g>
</svg>
